<svg width="28" height="27" viewBox="0 0 28 27" fill="none" xmlns="http://www.w3.org/2000/svg">
<path d="M24.3125 0.544922H3.6875C2.94158 0.544922 2.22621 0.841238 1.69876 1.36868C1.17132 1.89613 0.875 2.6115 0.875 3.35742L0.875 23.9824C0.875 24.7283 1.17132 25.4437 1.69876 25.9712C2.22621 26.4986 2.94158 26.7949 3.6875 26.7949H11.7295V17.8705H8.03809V13.6699H11.7295V10.4684C11.7295 6.82676 13.8975 4.81523 17.218 4.81523C18.8082 4.81523 20.4711 5.09883 20.4711 5.09883V8.67305H18.6389C16.8336 8.67305 16.2705 9.79336 16.2705 10.9424V13.6699H20.3006L19.6561 17.8705H16.2705V26.7949H24.3125C25.0584 26.7949 25.7738 26.4986 26.3012 25.9712C26.8287 25.4437 27.125 24.7283 27.125 23.9824V3.35742C27.125 2.6115 26.8287 1.89613 26.3012 1.36868C25.7738 0.841238 25.0584 0.544922 24.3125 0.544922Z" fill="#D1D5DB"/>
</svg>
